<svg xmlns="http://www.w3.org/2000/svg" xmlns:xlink="http://www.w3.org/1999/xlink" version="1.1" width="26px" height="30px" viewBox="-0.5 -0.5 26 30"><defs/><g><rect x="1.15" y="1.15" width="23.08" height="26.92" rx="3.46" ry="3.46" fill="rgb(255, 255, 255)" stroke="#3c4858" stroke-width="2.69" pointer-events="all"/><rect x="5" y="5" width="15.38" height="19.23" fill="none" stroke="none" pointer-events="all"/><path d="M 7.55 19.4 C 6.46 17.47 5.51 15.06 5.18 11.2 C 5.09 10.04 5 8.57 5.21 7.99 C 5.37 7.51 5.66 7.03 6.2 7.3 C 6.49 7.43 6.86 7.7 7.65 7.93 C 8.85 8.24 9.66 7.98 10.39 7.3 C 11.2 6.56 11.38 6.05 11.92 5.5 C 12.11 5.28 12.53 5 12.79 5.04 C 13.08 5.07 13.63 5.6 13.85 5.9 C 14.21 6.33 14.45 6.84 15.32 7.54 C 16.3 8.26 17.18 8.11 18.18 7.79 C 18.65 7.62 18.83 7.51 19.09 7.38 C 19.64 7.12 20.03 7.3 20.22 8.03 C 20.38 8.67 20.37 9.1 20.32 9.88 C 20.24 12.77 19.75 15.68 18.41 18.4 C 16.97 21.11 15.29 23.02 12.71 24.23 C 10.48 23.18 8.7 21.38 7.55 19.4 Z" fill="#3c4858" stroke="#3c4858" stroke-width="0.38" stroke-miterlimit="10" pointer-events="all"/></g></svg>